<?xml version="1.0" encoding="utf-8"?>
<!-- Generator: Adobe Illustrator 12.0.1, SVG Export Plug-In  -->
<!DOCTYPE svg PUBLIC "-//W3C//DTD SVG 1.1//EN" "http://www.w3.org/Graphics/SVG/1.1/DTD/svg11.dtd" [
	<!ENTITY ns_flows "http://ns.adobe.com/Flows/1.0/">
	<!ENTITY ns_svg "http://www.w3.org/2000/svg">
	<!ENTITY ns_xlink "http://www.w3.org/1999/xlink">
]>
<svg  version="1.1" xmlns="&ns_svg;" xmlns:xlink="&ns_xlink;" xmlns:a="http://ns.adobe.com/AdobeSVGViewerExtensions/3.0/"
	 width="290" height="262" viewBox="-0.4 -0.4 290 262" enable-background="new -0.4 -0.4 290 262" xml:space="preserve">
<defs>
</defs>
<rect id="Ocean_1_" x="0.6" y="0.6" fill="#A0C6E9" width="287.5" height="259.814"/>
<polygon fill="#F6D3AA" stroke="#6086C4" stroke-linecap="round" stroke-linejoin="round" points="76.267,3.406 78.396,3.406 
	79.887,2.767 80.739,1.915 83.082,1.702 83.934,0.85 76.906,0.85 76.906,1.063 78.184,1.275 76.692,2.127 "/>
<polygon fill="#F6D3AA" stroke="#6086C4" stroke-linecap="round" stroke-linejoin="round" points="54.119,2.554 56.035,3.192 
	57.952,2.127 58.591,1.063 58.378,0.85 53.054,0.85 52.627,0.85 53.054,1.275 "/>
<polygon fill="#F6D3AA" stroke="#6086C4" stroke-linecap="round" stroke-linejoin="round" points="73.072,6.813 74.563,6.6 
	74.776,5.961 75.841,5.536 76.054,5.109 75.415,4.896 76.054,4.044 75.628,3.831 73.498,5.748 71.794,6.387 72.008,7.239 "/>
<polygon fill="#F6D3AA" stroke="#6086C4" stroke-linecap="round" stroke-linejoin="round" points="75.841,2.34 76.48,2.127 
	75.841,1.915 75.202,2.767 75.202,3.192 75.841,3.192 "/>
<polygon fill="#F6D3AA" stroke="#6086C4" stroke-linecap="round" stroke-linejoin="round" points="66.47,4.044 65.619,3.831 
	64.341,4.896 65.619,5.109 "/>
<line fill="#F6D3AA" stroke="#6086C4" stroke-linecap="round" stroke-linejoin="round" x1="63.276" y1="5.322" x2="64.128" y2="5.109"/>
<line fill="#F6D3AA" stroke="#6086C4" stroke-linecap="round" stroke-linejoin="round" x1="72.008" y1="7.452" x2="72.434" y2="7.665"/>
<line fill="#F6D3AA" stroke="#6086C4" stroke-linecap="round" stroke-linejoin="round" x1="70.73" y1="6.387" x2="71.156" y2="6.6"/>
<polygon fill="#F6D3AA" stroke="#6086C4" stroke-linecap="round" stroke-linejoin="round" points="239.61,1.275 239.397,1.702 
	240.248,2.127 241.952,1.063 241.525,1.489 243.017,2.34 244.721,2.34 244.934,1.702 245.572,1.915 245.359,2.554 246.849,2.979 
	247.702,2.554 250.258,3.406 251.961,3.192 253.026,4.257 253.452,3.831 253.666,3.831 254.303,4.044 253.666,4.257 252.599,4.683 
	253.452,4.683 253.666,4.896 254.943,5.748 255.793,5.322 256.433,5.536 256.859,5.109 258.35,4.683 258.136,4.257 256.006,3.619 
	256.006,3.192 257.923,3.406 259.627,2.554 257.71,2.767 257.498,2.34 253.666,1.489 252.813,1.063 252.599,0.85 237.905,0.85 
	238.544,1.702 "/>
<polygon fill="#F6D3AA" stroke="#6086C4" stroke-linecap="round" stroke-linejoin="round" points="261.97,0.85 261.543,0.85 
	261.118,1.275 260.693,0.85 260.267,0.85 260.053,1.702 261.757,2.34 "/>
<polygon fill="#F6D3AA" stroke="#6086C4" stroke-linecap="round" stroke-linejoin="round" points="275.173,10.007 274.961,10.22 
	275.599,11.072 276.026,11.072 276.026,11.498 277.516,11.711 277.303,12.137 278.793,11.924 278.369,11.285 "/>
<polygon fill="#F6D3AA" stroke="#6086C4" stroke-linecap="round" stroke-linejoin="round" points="259.414,5.322 259.373,5.258 
	258.776,5.109 "/>
<polygon fill="#F6D3AA" stroke="#6086C4" stroke-linecap="round" stroke-linejoin="round" points="259.627,4.683 258.99,4.683 
	259.373,5.258 259.627,5.322 "/>
<polygon fill="#F6D3AA" stroke="#6086C4" stroke-linecap="round" stroke-linejoin="round" points="260.906,4.896 260.267,4.896 
	259.627,5.322 260.693,5.536 "/>
<polygon fill="#F6D3AA" stroke="#6086C4" stroke-linecap="round" stroke-linejoin="round" points="272.832,5.536 272.405,5.109 
	270.489,5.109 271.979,5.748 "/>
<polygon fill="#F6D3AA" stroke="#6086C4" stroke-linecap="round" stroke-linejoin="round" points="281.776,9.582 280.497,10.22 
	280.923,10.646 282.203,10.433 "/>
<polygon fill="#F6D3AA" stroke="#6086C4" stroke-linecap="round" stroke-linejoin="round" points="275.386,9.582 274.322,8.943 
	274.961,9.794 "/>
<polygon fill="#F6D3AA" stroke="#6086C4" stroke-linecap="round" stroke-linejoin="round" points="269.637,5.536 269.211,5.536 
	269.211,5.748 269.849,5.748 "/>
<line fill="#F6D3AA" stroke="#6086C4" stroke-linecap="round" stroke-linejoin="round" x1="273.682" y1="9.155" x2="274.109" y2="8.729"/>
<line fill="#F6D3AA" stroke="#6086C4" stroke-linecap="round" stroke-linejoin="round" x1="270.915" y1="8.303" x2="270.702" y2="8.303"/>
<line fill="#F6D3AA" stroke="#6086C4" stroke-linecap="round" stroke-linejoin="round" x1="274.109" y1="8.517" x2="274.536" y2="8.729"/>
<line fill="#F6D3AA" stroke="#6086C4" stroke-linecap="round" stroke-linejoin="round" x1="276.452" y1="9.794" x2="276.878" y2="10.007"/>
<line fill="#F6D3AA" stroke="#6086C4" stroke-linecap="round" stroke-linejoin="round" x1="258.136" y1="5.536" x2="257.923" y2="5.109"/>
<line fill="#F6D3AA" stroke="#6086C4" stroke-linecap="round" stroke-linejoin="round" x1="258.776" y1="5.322" x2="258.136" y2="5.109"/>
<line fill="#F6D3AA" stroke="#6086C4" stroke-linecap="round" stroke-linejoin="round" x1="273.469" y1="6.6" x2="273.682" y2="6.813"/>
<polygon fill="none" stroke="#6086C4" stroke-linecap="round" stroke-linejoin="round" points="151.377,167.776 152.017,168.416 
	152.442,167.989 "/>
<polygon fill="none" stroke="#6086C4" stroke-linecap="round" stroke-linejoin="round" points="184.599,190.35 183.538,189.5 
	184.92,191.637 185.239,192.053 185.312,192.246 185.876,193.119 "/>
<polygon fill="none" stroke="#6086C4" stroke-linecap="round" stroke-linejoin="round" points="29.989,181.406 29.776,182.044 
	30.841,182.044 "/>
<polygon fill="none" stroke="#6086C4" stroke-linecap="round" stroke-linejoin="round" points="262.97,173.313 262.331,173.1 
	262.757,173.526 263.397,173.1 262.757,172.674 "/>
<polygon fill="none" stroke="#6086C4" stroke-linecap="round" stroke-linejoin="round" points="26.582,158.406 25.517,159.044 
	26.582,158.831 "/>
<polygon fill="none" stroke="#6086C4" stroke-linecap="round" stroke-linejoin="round" points="252.536,203.128 253.173,203.767 
	253.386,203.128 "/>
<polygon fill="none" stroke="#6086C4" stroke-linecap="round" stroke-linejoin="round" points="125.184,10.396 124.971,10.183 
	124.971,10.396 "/>
<polygon fill="none" stroke="#6086C4" stroke-linecap="round" stroke-linejoin="round" points="124.119,11.887 124.062,11.586 
	123.906,12.525 124.119,12.1 125.183,12.525 "/>
<polygon fill="none" stroke="#6086C4" stroke-linecap="round" stroke-linejoin="round" points="229.536,254.239 227.832,254.239 
	229.322,254.665 "/>
<polygon fill="none" stroke="#6086C4" stroke-linecap="round" stroke-linejoin="round" points="265.525,167.137 264.887,167.137 
	265.1,167.989 265.738,167.137 265.525,166.285 "/>
<polygon fill="none" stroke="#6086C4" stroke-linecap="round" stroke-linejoin="round" points="120.499,33.822 120.072,33.396 
	120.924,33.396 120.924,32.758 119.434,33.609 119.859,33.609 "/>
<polygon fill="none" stroke="#6086C4" stroke-linecap="round" stroke-linejoin="round" points="122.415,12.029 122.202,11.887 
	122.415,12.525 "/>
<path fill="none" stroke="#6086C4" stroke-linecap="round" stroke-linejoin="round" d="M85.785,44.258l0.426,0.425l1.065-0.425
	l-1.065,0.212l-1.278-0.639l-1.491,0.213l0.426,0.426L85.785,44.258z M85.146,44.044h-0.638H85.146z"/>
<polygon fill="none" stroke="#6086C4" stroke-linecap="round" stroke-linejoin="round" points="271.275,160.536 271.275,160.109 
	270.424,160.109 "/>
<polygon fill="none" stroke="#6086C4" stroke-linecap="round" stroke-linejoin="round" points="260.84,142.433 261.053,143.072 
	261.267,143.072 261.48,142.22 "/>
<polygon fill="none" stroke="#6086C4" stroke-linecap="round" stroke-linejoin="round" points="267.868,164.155 267.442,164.582 
	267.655,164.794 268.507,164.155 267.655,163.73 "/>
<polygon fill="none" stroke="#6086C4" stroke-linecap="round" stroke-linejoin="round" points="84.082,45.109 83.442,44.726 
	83.442,45.535 "/>
<polygon fill="#FDF9D2" stroke="#6086C4" stroke-linecap="round" stroke-linejoin="round" points="119.007,33.396 119.099,33.335 
	118.937,33.254 "/>
<polygon fill="#FDF9D2" stroke="#6086C4" stroke-linecap="round" stroke-linejoin="round" points="94.304,27.221 94.942,27.646 
	94.942,28.072 95.369,27.221 "/>
<polygon fill="#FDF9D2" stroke="#6086C4" stroke-linecap="round" stroke-linejoin="round" points="85.146,37.23 85.785,37.23 
	85.359,36.377 "/>
<polygon fill="#FDF9D2" stroke="#6086C4" stroke-linecap="round" stroke-linejoin="round" points="85.146,37.442 84.508,37.017 
	84.72,36.377 83.869,37.23 84.72,37.23 84.294,37.869 "/>
<polygon fill="#FDF9D2" stroke="#6086C4" stroke-linecap="round" stroke-linejoin="round" points="118.156,32.118 118.368,32.544 
	119.221,31.906 "/>
<polygon fill="#FDF9D2" stroke="#6086C4" stroke-linecap="round" stroke-linejoin="round" points="88.554,35.525 88.98,35.313 
	88.554,35.1 "/>
<polygon fill="#FDF9D2" stroke="#6086C4" stroke-linecap="round" stroke-linejoin="round" points="110.063,34.035 110.276,34.674 
	110.489,34.887 "/>
<polygon fill="#FDF9D2" stroke="#6086C4" stroke-linecap="round" stroke-linejoin="round" points="87.063,34.674 86.637,34.461 
	87.063,35.1 "/>
<polygon fill="#FDF9D2" stroke="#6086C4" stroke-linecap="round" stroke-linejoin="round" points="88.554,30.841 88.128,32.118 
	88.98,32.118 "/>
<polygon fill="#FDF9D2" stroke="#6086C4" stroke-linecap="round" stroke-linejoin="round" points="83.656,37.017 83.869,36.59 
	83.017,36.804 "/>
<polygon fill="#FDF9D2" stroke="#6086C4" stroke-linecap="round" stroke-linejoin="round" points="108.359,35.525 108.999,36.165 
	108.572,35.1 "/>
<line fill="none" stroke="#6086C4" stroke-linecap="round" stroke-linejoin="round" x1="90.896" y1="31.053" x2="91.323" y2="31.267"/>
<line fill="none" stroke="#6086C4" stroke-linecap="round" stroke-linejoin="round" x1="117.517" y1="28.286" x2="117.73" y2="28.711"/>
<line fill="none" stroke="#6086C4" stroke-linecap="round" stroke-linejoin="round" x1="118.156" y1="33.396" x2="118.368" y2="34.035"/>
<line fill="none" stroke="#6086C4" stroke-linecap="round" stroke-linejoin="round" x1="82.804" y1="37.23" x2="83.017" y2="36.804"/>
<line fill="none" stroke="#6086C4" stroke-linecap="round" stroke-linejoin="round" x1="77.48" y1="41.701" x2="77.906" y2="41.915"/>
<line fill="none" stroke="#6086C4" stroke-linecap="round" stroke-linejoin="round" x1="81.1" y1="42.341" x2="81.526" y2="42.341"/>
<line fill="none" stroke="#6086C4" stroke-linecap="round" stroke-linejoin="round" x1="97.499" y1="27.007" x2="98.35" y2="27.221"/>
<line fill="none" stroke="#6086C4" stroke-linecap="round" stroke-linejoin="round" x1="117.517" y1="33.183" x2="118.156" y2="34.461"/>
<line fill="none" stroke="#6086C4" stroke-linecap="round" stroke-linejoin="round" x1="76.415" y1="45.322" x2="76.628" y2="45.748"/>
<line fill="none" stroke="#6086C4" stroke-linecap="round" stroke-linejoin="round" x1="79.822" y1="43.193" x2="80.461" y2="43.618"/>
<line fill="none" stroke="#6086C4" stroke-linecap="round" stroke-linejoin="round" x1="86.637" y1="36.59" x2="85.999" y2="36.59"/>
<line fill="none" stroke="#6086C4" stroke-linecap="round" stroke-linejoin="round" x1="77.692" y1="43.406" x2="77.054" y2="43.193"/>
<line fill="none" stroke="#6086C4" stroke-linecap="round" stroke-linejoin="round" x1="82.378" y1="44.47" x2="82.165" y2="44.044"/>
<line fill="none" stroke="#6086C4" stroke-linecap="round" stroke-linejoin="round" x1="94.304" y1="29.776" x2="94.304" y2="30.201"/>
<line fill="none" stroke="#6086C4" stroke-linecap="round" stroke-linejoin="round" x1="81.952" y1="41.062" x2="82.378" y2="41.489"/>
<line fill="none" stroke="#6086C4" stroke-linecap="round" stroke-linejoin="round" x1="87.276" y1="35.313" x2="87.276" y2="35.1"/>
<line fill="none" stroke="#6086C4" stroke-linecap="round" stroke-linejoin="round" x1="77.692" y1="45.748" x2="77.267" y2="45.961"/>
<line fill="none" stroke="#6086C4" stroke-linecap="round" stroke-linejoin="round" x1="93.665" y1="30.415" x2="93.878" y2="29.989"/>
<line fill="none" stroke="#6086C4" stroke-linecap="round" stroke-linejoin="round" x1="78.119" y1="42.128" x2="78.332" y2="42.341"/>
<line fill="none" stroke="#6086C4" stroke-linecap="round" stroke-linejoin="round" x1="100.107" y1="27.806" x2="99.628" y2="27.646"/>
<line fill="none" stroke="#6086C4" stroke-linecap="round" stroke-linejoin="round" x1="100.267" y1="27.859" x2="100.107" y2="27.806"/>
<line fill="none" stroke="#6086C4" stroke-linecap="round" stroke-linejoin="round" x1="116.026" y1="34.248" x2="115.813" y2="33.609"/>
<line fill="none" stroke="#6086C4" stroke-linecap="round" stroke-linejoin="round" x1="78.758" y1="42.341" x2="79.396" y2="42.554"/>
<line fill="none" stroke="#6086C4" stroke-linecap="round" stroke-linejoin="round" x1="78.332" y1="44.47" x2="78.544" y2="44.47"/>
<line fill="none" stroke="#6086C4" stroke-linecap="round" stroke-linejoin="round" x1="109.637" y1="32.97" x2="109.85" y2="33.183"/>
<line fill="none" stroke="#6086C4" stroke-linecap="round" stroke-linejoin="round" x1="118.368" y1="35.1" x2="118.156" y2="34.887"/>
<line fill="none" stroke="#6086C4" stroke-linecap="round" stroke-linejoin="round" x1="76.628" y1="42.128" x2="77.054" y2="42.128"/>
<line fill="none" stroke="#6086C4" stroke-linecap="round" stroke-linejoin="round" x1="118.795" y1="33.183" x2="118.937" y2="33.254"/>
<line fill="none" stroke="#6086C4" stroke-linecap="round" stroke-linejoin="round" x1="119.099" y1="33.335" x2="119.221" y2="33.396"/>
<line fill="none" stroke="#6086C4" stroke-linecap="round" stroke-linejoin="round" x1="119.099" y1="33.335" x2="118.937" y2="33.254"/>
<line fill="none" stroke="#6086C4" stroke-linecap="round" stroke-linejoin="round" x1="77.906" y1="50.646" x2="77.692" y2="50.22"/>
<line fill="none" stroke="#6086C4" stroke-linecap="round" stroke-linejoin="round" x1="85.146" y1="44.044" x2="84.508" y2="44.044"/>
<line fill="none" stroke="#6086C4" stroke-linecap="round" stroke-linejoin="round" x1="81.526" y1="43.406" x2="81.739" y2="43.406"/>
<line fill="none" stroke="#6086C4" stroke-linecap="round" stroke-linejoin="round" x1="90.47" y1="31.267" x2="90.896" y2="31.267"/>
<path fill="#FDF9D2" stroke="#6086C4" stroke-linecap="round" stroke-linejoin="round" d="M125.184,12.525l2.129,1.278l2.13-1.278
	l0.639-1.064l0.64,0.212v-0.852l0.638-0.212l-0.851-1.278h-0.853l-0.212-0.639l-0.639,0.852l0.426,1.065l-0.638-1.491l-0.213,0.639
	l-0.426-0.212v1.277l-0.213-1.065h-0.213l-0.639-0.212l-1.278,0.426l0.852,1.278l-0.852-0.426l-0.213-1.065l-0.426,0.426
	l0.213,0.213h-0.213v-0.213V9.332l-1.491-0.852l0.525,2.797l-0.737,0.185l0.425-0.426l-0.425,0.213l0.425-0.852l-0.425-0.852
	l-1.491,1.065l0.852,0.426h-0.426v0.852l0.212,0.142v0.497l-0.212-0.639l-0.213,0.426l-0.639-0.426v0.852h-0.426l4.046,0.426
	L125.184,12.525z M123.906,12.525l0.157-0.939l0.056,0.3l1.064,0.638l-1.064-0.425L123.906,12.525z"/>
<polygon fill="#FDF9D2" stroke="#6086C4" stroke-linecap="round" stroke-linejoin="round" points="163.943,29.137 165.433,29.989 
	167.35,29.989 167.137,28.924 166.923,29.35 165.86,29.137 165.86,28.286 166.498,28.072 166.285,27.434 167.35,26.582 
	166.71,26.155 166.71,26.794 165.86,26.794 165.646,25.942 165.86,25.517 164.793,25.729 165.22,26.369 163.73,26.794 
	163.73,27.859 163.943,28.711 163.303,29.563 "/>
<polygon fill="#FDF9D2" stroke="#6086C4" stroke-linecap="round" stroke-linejoin="round" points="183.536,45.961 184.173,46.174 
	184.813,44.896 185.026,45.535 185.876,45.322 184.813,44.258 183.109,44.896 182.045,45.961 183.109,46.6 "/>
<polygon fill="#FDF9D2" stroke="#6086C4" stroke-linecap="round" stroke-linejoin="round" points="167.777,40.211 168.201,40.637 
	168.415,39.998 167.777,38.72 167.777,39.359 167.137,39.359 "/>
<polygon fill="#FDF9D2" stroke="#6086C4" stroke-linecap="round" stroke-linejoin="round" points="160.749,12.952 160.536,12.525 
	159.469,13.804 158.192,14.017 157.979,14.656 159.256,14.229 "/>
<polygon fill="#FDF9D2" stroke="#6086C4" stroke-linecap="round" stroke-linejoin="round" points="162.239,26.369 162.666,26.794 
	163.09,25.942 162.239,25.517 161.813,26.582 162.239,26.794 "/>
<polygon fill="#FDF9D2" stroke="#6086C4" stroke-linecap="round" stroke-linejoin="round" points="183.749,49.155 183.961,49.582 
	185.026,49.155 184.599,48.517 "/>
<polygon fill="#FDF9D2" stroke="#6086C4" stroke-linecap="round" stroke-linejoin="round" points="166.71,39.359 166.073,39.146 
	165.86,39.786 166.498,39.786 "/>
<polygon fill="#FDF9D2" stroke="#6086C4" stroke-linecap="round" stroke-linejoin="round" points="138.6,8.693 138.174,7.415 
	137.322,7.628 138.174,9.97 "/>
<polygon fill="#FDF9D2" stroke="#6086C4" stroke-linecap="round" stroke-linejoin="round" points="162.453,24.025 161.6,23.6 
	162.026,24.877 162.026,24.239 "/>
<polygon fill="#FDF9D2" stroke="#6086C4" stroke-linecap="round" stroke-linejoin="round" points="165.22,38.294 164.581,38.507 
	164.369,39.146 165.007,39.146 "/>
<polygon fill="#FDF9D2" stroke="#6086C4" stroke-linecap="round" stroke-linejoin="round" points="144.137,11.674 143.285,11.674 
	143.499,12.1 "/>
<polygon fill="#FDF9D2" stroke="#6086C4" stroke-linecap="round" stroke-linejoin="round" points="166.923,38.294 166.71,38.934 
	167.137,38.72 "/>
<polygon fill="#FDF9D2" stroke="#6086C4" stroke-linecap="round" stroke-linejoin="round" points="165.86,39.572 165.22,39.786 
	165.646,39.998 "/>
<polygon fill="#FDF9D2" stroke="#6086C4" stroke-linecap="round" stroke-linejoin="round" points="160.961,11.887 160.961,12.313 
	161.386,11.887 "/>
<polygon fill="#FDF9D2" stroke="#6086C4" stroke-linecap="round" stroke-linejoin="round" points="138.387,12.313 138.6,11.887 
	137.749,12.1 "/>
<polygon fill="#FDF9D2" stroke="#6086C4" stroke-linecap="round" stroke-linejoin="round" points="144.137,10.609 143.499,11.035 
	143.499,11.248 144.35,11.035 "/>
<polygon fill="#FDF9D2" stroke="#6086C4" stroke-linecap="round" stroke-linejoin="round" points="153.932,14.869 153.294,14.656 
	153.721,15.081 "/>
<polygon fill="#FDF9D2" stroke="#6086C4" stroke-linecap="round" stroke-linejoin="round" points="164.156,25.942 164.156,26.155 
	164.581,26.369 164.581,25.729 "/>
<line fill="none" stroke="#6086C4" stroke-linecap="round" stroke-linejoin="round" x1="162.026" y1="12.1" x2="163.516" y2="11.248"/>
<line fill="none" stroke="#6086C4" stroke-linecap="round" stroke-linejoin="round" x1="163.516" y1="11.035" x2="164.156" y2="10.609"/>
<line fill="none" stroke="#6086C4" stroke-linecap="round" stroke-linejoin="round" x1="182.256" y1="46.387" x2="182.045" y2="46.813"/>
<line fill="none" stroke="#6086C4" stroke-linecap="round" stroke-linejoin="round" x1="163.943" y1="13.377" x2="163.516" y2="13.59"/>
<line fill="none" stroke="#6086C4" stroke-linecap="round" stroke-linejoin="round" x1="140.091" y1="8.479" x2="140.517" y2="8.693"/>
<line fill="none" stroke="#6086C4" stroke-linecap="round" stroke-linejoin="round" x1="159.045" y1="34.035" x2="159.469" y2="33.609"/>
<line fill="none" stroke="#6086C4" stroke-linecap="round" stroke-linejoin="round" x1="182.896" y1="48.942" x2="182.469" y2="48.73"/>
<line fill="none" stroke="#6086C4" stroke-linecap="round" stroke-linejoin="round" x1="160.749" y1="13.377" x2="160.961" y2="13.165"/>
<line fill="none" stroke="#6086C4" stroke-linecap="round" stroke-linejoin="round" x1="139.026" y1="11.674" x2="138.6" y2="11.887"/>
<line fill="none" stroke="#6086C4" stroke-linecap="round" stroke-linejoin="round" x1="154.572" y1="13.804" x2="155.211" y2="13.804"/>
<polygon fill="#FDF9D2" stroke="#6086C4" stroke-linecap="round" stroke-linejoin="round" points="166.073,7.628 164.156,10.396 
	165.646,9.118 "/>
<line fill="none" stroke="#6086C4" stroke-linecap="round" stroke-linejoin="round" x1="161.173" y1="15.294" x2="161.386" y2="14.869"/>
<line fill="none" stroke="#6086C4" stroke-linecap="round" stroke-linejoin="round" x1="181.619" y1="47.452" x2="182.045" y2="47.239"/>
<line fill="none" stroke="#6086C4" stroke-linecap="round" stroke-linejoin="round" x1="162.026" y1="15.507" x2="161.813" y2="15.507"/>
<line fill="none" stroke="#6086C4" stroke-linecap="round" stroke-linejoin="round" x1="137.109" y1="15.081" x2="136.471" y2="14.869"/>
<line fill="none" stroke="#6086C4" stroke-linecap="round" stroke-linejoin="round" x1="135.192" y1="11.248" x2="134.979" y2="11.674"/>
<line fill="none" stroke="#6086C4" stroke-linecap="round" stroke-linejoin="round" x1="164.369" y1="12.739" x2="164.156" y2="13.59"/>
<line fill="none" stroke="#6086C4" stroke-linecap="round" stroke-linejoin="round" x1="121.35" y1="22.322" x2="121.137" y2="21.896"/>
<line fill="none" stroke="#6086C4" stroke-linecap="round" stroke-linejoin="round" x1="165.22" y1="39.572" x2="164.793" y2="39.786"/>
<line fill="none" stroke="#6086C4" stroke-linecap="round" stroke-linejoin="round" x1="140.943" y1="8.053" x2="140.943" y2="7.841"/>
<line fill="none" stroke="#6086C4" stroke-linecap="round" stroke-linejoin="round" x1="153.721" y1="14.442" x2="154.359" y2="14.442"/>
<line fill="none" stroke="#6086C4" stroke-linecap="round" stroke-linejoin="round" x1="128.378" y1="14.656" x2="127.952" y2="14.656"/>
<line fill="none" stroke="#6086C4" stroke-linecap="round" stroke-linejoin="round" x1="165.22" y1="12.525" x2="164.369" y2="12.952"/>
<line fill="none" stroke="#6086C4" stroke-linecap="round" stroke-linejoin="round" x1="163.09" y1="14.229" x2="161.813" y2="14.656"/>
<line fill="none" stroke="#6086C4" stroke-linecap="round" stroke-linejoin="round" x1="186.73" y1="46.174" x2="187.156" y2="46.174"/>
<line fill="none" stroke="#6086C4" stroke-linecap="round" stroke-linejoin="round" x1="166.285" y1="38.72" x2="166.71" y2="38.72"/>
<line fill="none" stroke="#6086C4" stroke-linecap="round" stroke-linejoin="round" x1="165.646" y1="12.952" x2="165.433" y2="13.165"/>
<line fill="none" stroke="#6086C4" stroke-linecap="round" stroke-linejoin="round" x1="185.239" y1="48.942" x2="185.026" y2="49.369"/>
<line fill="none" stroke="#6086C4" stroke-linecap="round" stroke-linejoin="round" x1="166.285" y1="15.081" x2="166.498" y2="14.656"/>
<polygon fill="#FDF9D2" stroke="#6086C4" stroke-linecap="round" stroke-linejoin="round" points="228.469,57.248 229.322,58.1 
	229.322,58.952 230.173,58.952 229.961,57.248 229.322,56.822 229.536,57.674 "/>
<polygon fill="#FDF9D2" stroke="#6086C4" stroke-linecap="round" stroke-linejoin="round" points="203.128,5.498 202.489,4.646 
	201.849,5.286 202.489,5.924 "/>
<polygon fill="#FDF9D2" stroke="#6086C4" stroke-linecap="round" stroke-linejoin="round" points="202.489,2.09 203.128,2.517 
	203.552,1.877 202.915,1.452 202.489,1.877 "/>
<polygon fill="#FDF9D2" stroke="#6086C4" stroke-linecap="round" stroke-linejoin="round" points="231.876,60.23 231.666,60.869 
	232.516,60.869 "/>
<polygon fill="#FDF9D2" stroke="#6086C4" stroke-linecap="round" stroke-linejoin="round" points="202.489,1.025 201.849,1.452 
	201.849,1.665 202.276,1.877 "/>
<polygon fill="#FDF9D2" stroke="#6086C4" stroke-linecap="round" stroke-linejoin="round" points="233.793,63.424 233.156,63.424 
	233.581,63.851 "/>
<line fill="none" stroke="#6086C4" stroke-linecap="round" stroke-linejoin="round" x1="202.702" y1="4.859" x2="203.341" y2="4.859"/>
<line fill="none" stroke="#6086C4" stroke-linecap="round" stroke-linejoin="round" x1="231.026" y1="59.59" x2="231.239" y2="60.23"/>
<line fill="none" stroke="#6086C4" stroke-linecap="round" stroke-linejoin="round" x1="202.489" y1="4.433" x2="202.702" y2="4.221"/>
<line fill="none" stroke="#6086C4" stroke-linecap="round" stroke-linejoin="round" x1="215.905" y1="29.137" x2="216.331" y2="28.924"/>
<line fill="none" stroke="#6086C4" stroke-linecap="round" stroke-linejoin="round" x1="205.469" y1="6.776" x2="205.896" y2="7.202"/>
<line fill="none" stroke="#6086C4" stroke-linecap="round" stroke-linejoin="round" x1="216.331" y1="29.137" x2="216.118" y2="29.137"/>
<line fill="none" stroke="#6086C4" stroke-linecap="round" stroke-linejoin="round" x1="229.109" y1="58.526" x2="228.896" y2="58.1"/>
<line fill="none" stroke="#6086C4" stroke-linecap="round" stroke-linejoin="round" x1="228.896" y1="55.118" x2="229.109" y2="55.332"/>
<line fill="none" stroke="#6086C4" stroke-linecap="round" stroke-linejoin="round" x1="205.045" y1="5.498" x2="205.258" y2="5.711"/>
<line fill="none" stroke="#6086C4" stroke-linecap="round" stroke-linejoin="round" x1="231.239" y1="60.23" x2="231.452" y2="60.442"/>
<polygon fill="#FDF9D2" stroke="#6086C4" stroke-linecap="round" stroke-linejoin="round" points="8.693,113.044 6.989,109.211 
	6.989,111.341 8.693,114.109 "/>
<polygon fill="#FDF9D2" stroke="#6086C4" stroke-linecap="round" stroke-linejoin="round" points="23.813,74.285 22.748,75.776 
	23.387,75.776 "/>
<line fill="none" stroke="#6086C4" stroke-linecap="round" stroke-linejoin="round" x1="31.693" y1="74.499" x2="31.054" y2="74.499"/>
<line fill="none" stroke="#6086C4" stroke-linecap="round" stroke-linejoin="round" x1="31.905" y1="73.434" x2="31.267" y2="73.859"/>
<line fill="none" stroke="#6086C4" stroke-linecap="round" stroke-linejoin="round" x1="14.017" y1="134.767" x2="13.804" y2="135.406"/>
<line fill="none" stroke="#6086C4" stroke-linecap="round" stroke-linejoin="round" x1="31.905" y1="73.646" x2="31.479" y2="74.072"/>
<line fill="none" stroke="#6086C4" stroke-linecap="round" stroke-linejoin="round" x1="32.544" y1="72.794" x2="32.97" y2="72.582"/>
<line fill="none" stroke="#6086C4" stroke-linecap="round" stroke-linejoin="round" x1="33.184" y1="72.582" x2="32.758" y2="73.22"/>
<line fill="none" stroke="#6086C4" stroke-linecap="round" stroke-linejoin="round" x1="31.054" y1="73.007" x2="31.267" y2="72.794"/>
<line fill="none" stroke="#6086C4" stroke-linecap="round" stroke-linejoin="round" x1="24.239" y1="72.369" x2="24.452" y2="72.582"/>
<line fill="none" stroke="#6086C4" stroke-linecap="round" stroke-linejoin="round" x1="7.841" y1="107.507" x2="8.054" y2="105.59"/>
<line fill="none" stroke="#6086C4" stroke-linecap="round" stroke-linejoin="round" x1="15.933" y1="81.738" x2="16.359" y2="81.313"/>
<line fill="none" stroke="#6086C4" stroke-linecap="round" stroke-linejoin="round" x1="13.378" y1="112.192" x2="12.952" y2="111.554"/>
<line fill="none" stroke="#6086C4" stroke-linecap="round" stroke-linejoin="round" x1="31.693" y1="73.22" x2="31.905" y2="73.007"/>
<line fill="none" stroke="#6086C4" stroke-linecap="round" stroke-linejoin="round" x1="34.248" y1="74.072" x2="34.674" y2="73.859"/>
<line fill="none" stroke="#6086C4" stroke-linecap="round" stroke-linejoin="round" x1="44.258" y1="71.73" x2="44.47" y2="71.73"/>
<line fill="none" stroke="#6086C4" stroke-linecap="round" stroke-linejoin="round" x1="14.869" y1="87.276" x2="15.082" y2="87.062"/>
<line fill="none" stroke="#6086C4" stroke-linecap="round" stroke-linejoin="round" x1="32.97" y1="72.155" x2="33.609" y2="72.582"/>
<line fill="none" stroke="#6086C4" stroke-linecap="round" stroke-linejoin="round" x1="8.054" y1="105.378" x2="8.267" y2="103.674"/>
<line fill="none" stroke="#6086C4" stroke-linecap="round" stroke-linejoin="round" x1="24.026" y1="72.794" x2="24.239" y2="73.22"/>
<line fill="none" stroke="#6086C4" stroke-linecap="round" stroke-linejoin="round" x1="254.239" y1="85.146" x2="254.666" y2="84.72"/>
<polygon fill="#FDF9D2" stroke="#6086C4" stroke-linecap="round" stroke-linejoin="round" points="248.062,71.304 247.637,70.665 
	247.424,71.73 248.489,71.73 "/>
<polygon fill="#FDF9D2" stroke="#6086C4" stroke-linecap="round" stroke-linejoin="round" points="254.026,85.572 254.026,84.294 
	253.813,84.934 253.813,85.146 "/>
<polygon fill="#FDF9D2" stroke="#6086C4" stroke-linecap="round" stroke-linejoin="round" points="247.211,70.665 247.637,70.665 
	247.849,70.026 "/>
<line fill="none" stroke="#6086C4" stroke-linecap="round" stroke-linejoin="round" x1="252.749" y1="86.85" x2="253.173" y2="86.424"/>
<line fill="none" stroke="#6086C4" stroke-linecap="round" stroke-linejoin="round" x1="244.442" y1="69.6" x2="244.442" y2="70.026"/>
<line fill="none" stroke="#6086C4" stroke-linecap="round" stroke-linejoin="round" x1="248.489" y1="72.582" x2="248.275" y2="73.22"/>
<line fill="none" stroke="#6086C4" stroke-linecap="round" stroke-linejoin="round" x1="251.896" y1="75.776" x2="252.109" y2="75.776"/>
<line fill="none" stroke="#6086C4" stroke-linecap="round" stroke-linejoin="round" x1="246.998" y1="71.942" x2="247.211" y2="72.369"/>
<line fill="none" stroke="#6086C4" stroke-linecap="round" stroke-linejoin="round" x1="248.489" y1="71.73" x2="248.702" y2="71.304"/>
<path fill="#FDF9D2" stroke="#6086C4" stroke-linecap="round" stroke-linejoin="round" d="M278.516,129.443l-0.851-0.852
	l-0.606-2.546l-0.033-0.01l0.033,0.01l-0.46-1.926l-0.638-0.852l-0.64,0.425l0.427-0.639l-0.853-0.426l0.64-0.639l-0.64-0.639
	l0.853-0.426l-0.64-0.639v-0.639l1.064,1.277l-0.638-1.917l-0.214,0.64l0.427-1.704l-0.42-0.279l0.207-1.851h-0.427l0.853-3.407
	h-0.426l-0.427-0.852l-0.427,1.277l0.214-1.064h-0.638l0.424-0.426l-0.851-0.639v-1.278l0.638-0.639l-1.277,0.426l1.066-0.426
	l-0.214-1.065l-2.343-0.639l0.64-0.426l-1.279-1.491l0.213-0.852l-0.638-0.426l-0.213,0.426l0.213-0.639l-1.278-0.64v0.213
	l-1.064-1.065l-1.064-2.769l-0.853-0.212l0.213-0.852l-0.426,0.639V98.35l-0.64-0.213l0.426,0.852l-0.851-0.426v0.426l-0.853-0.426
	v0.426l-2.768-3.833l-0.64,0.852l-0.851-1.277l0.424-0.213l-0.638-1.278l0.425-0.425l-0.638-2.342h0.427l0.211-1.705l-0.425-1.064
	v0.639l-0.426-0.213l-0.427-0.852l0.64,0.213l0.213-0.213l-0.64-1.065v0.852l-0.213-0.852l-0.426-0.212l-0.212,0.639l0.638,1.065
	l-0.426-0.213l0.426,1.065l-2.98-2.13l-1.066-1.704l-0.211,0.426l-0.64,1.064l0.64,1.491l0.425,0.852l-0.425-0.426l-1.279-1.49
	l-1.277,1.49l0.64-1.49h-0.853l0.426-0.213l-0.213-0.425l-0.851,0.212l0.851-0.426l-1.277-2.981l0.427-2.342l-0.214,0.425
	l-0.853-0.852l-0.213,0.427v-1.917l-0.851,0.425l0.213-0.639h-0.213l0.424-1.065l-0.851-0.852l-0.64,0.426l0.213-0.852h-1.49
	l-0.213-0.639l0.426-0.213l-1.063-0.639l0.211-0.426l-0.638-0.639l0.638-0.213l-0.424-0.426l0.638,0.213l0.213-0.426l1.065,0.852
	l-1.278-2.13l-0.425,0.213v-0.639h-0.64l-0.213-0.852h-0.64h-0.213v0.852l-0.639-0.213l-0.853-0.852l0.214-0.213v-0.213
	l-1.064-0.639l-1.277,0.213l-0.427-1.492h-0.639l0.426,1.065l-0.853-0.213l-1.277-1.277l0.853,0.425l-1.279-2.768v0.852
	l-1.916,0.212l-0.852-1.916l-0.213,0.852h-0.64l-0.638-0.852l-2.13-0.853l-1.277-1.49l0.425-2.342h-0.852l-1.49-2.556l1.064-3.62
	h-0.427v-1.704l-1.277-2.343l0.427-1.064l-1.066,0.212l-2.554-3.407v-1.065h0.426v-1.49l-0.853-1.065l-0.213-2.342l-0.852-0.852
	l1.064-1.278v-0.213l-0.64,0.213l-0.211-1.065l0.851-1.064h-0.427l-0.424-0.852l-1.279-0.213l-0.852-1.278l-1.49-0.425l-1.065-2.769
	l-1.277,1.065l-0.853-0.426l-0.425,1.278l-1.279,0.639l-1.063-0.852l-0.64-2.769l-1.064-1.704l0.427-2.13l-0.64-2.129l0.213-1.917
	l-1.277,0.426l0.638-1.916l-1.277-0.852v-0.852l-1.063-0.213l-0.214-1.491l1.277-1.064l-1.063-0.427l-0.854,0.213l-0.638-0.639V9.97
	l-0.853-2.556h-0.64l-0.424-0.852v0.426l-0.854,0.425l1.066-1.704l-0.213-0.213l-0.214-0.212l-0.853,0.212l-0.638,1.278
	l-1.279,0.426l0.214,1.065l-0.639,2.769h-0.213l-0.213,1.49h0.638l-0.851,0.213l-0.214,1.278l0.427,0.639l0.426-0.427l-0.426,0.64
	l-0.427-0.213l-0.213,0.852l-0.213-1.49l-1.064,1.704l0.64,0.213h-0.64l-0.853,2.129h0.64l-0.213-0.852l0.639,0.213l-0.426,0.213
	l0.853,0.639h1.064l-1.064,0.426l1.064,0.426l-0.427,0.213l0.213,1.064l-0.851-1.491l-0.427,1.065l-1.065,0.852l0.64,1.917
	l-0.213,0.639l0.426-0.213l-0.213,0.213l0.426,0.213h-0.853l-1.063,3.194l1.063,2.343l-0.638,2.129l0.852,3.833l-1.277,3.407
	l-0.64,2.555l0.426,1.065l-1.49,4.259l-1.703,2.13l-0.427,2.769l-1.917,1.491l-3.62,0.852l-0.427-0.213l-1.277-0.852l-1.49-0.213
	l-0.853-1.064l-1.49-0.639l-0.427-1.916l-0.851-0.852l-2.768-0.853l-3.409-0.425l-2.555-3.407l-2.13-0.639l-2.768-1.917l-0.64,0.212
	l0.213,0.426l-1.065-0.426l-0.639,0.213v-0.852l-2.343-1.065l-0.851-1.704l-3.407-2.129l-0.214,0.212V35.1l-0.64,0.213l-1.063-1.065
	l-0.427-1.49l1.277-0.426l1.066-2.556l1.277-0.639l0.213-1.278l1.064-2.342l-0.852,0.639l-0.426-0.213l-0.214-1.917l0.427,0.213
	l0.426-0.426l-0.639-0.213l0.213-0.639l0.638-0.426l0.213,0.639l0.64-1.277l0.213,1.065l0.214-1.065l0.638,0.213l0.213-0.639
	l0.427,1.065l-0.427,0.639l0.853-0.426l0.638-1.278l-0.638-0.639l1.277,0.213l-1.277-1.491l0.425,0.213l0.213-0.426l0.427,0.639
	l-0.213-0.852h0.639l0.427-1.065l-0.213-0.639h0.425v0.639l1.278-1.491l-1.278-1.278l-0.639,0.427l0.427,0.425h-0.64l-0.853-1.917
	h-0.425l0.638-0.852l-2.555,1.917l1.491,0.427l-0.64,1.277l-0.638,0.427l-0.853-0.213l-0.427,0.426v-0.64h-0.425l0.638-1.064
	l-0.638,0.212l-0.213-0.425l0.851-1.065l-1.703,0.852l-0.214,0.639l-0.638-0.425l1.704-1.917l-2.344,1.277l-0.213-0.425
	l-1.063,0.213l-1.066,0.639l0.853,0.426l-1.277-0.213l0.425,0.639l-2.555-1.065l-0.64-1.49l-0.851,1.065l-2.557-0.64l-0.64,1.278
	l0.427-1.065l-0.427-0.852l-0.424,0.213l-0.214-0.639l-0.853,0.639l-0.638-0.639l0.638-0.64l-0.851-0.212l-1.917,1.064l0.213-0.852
	l-0.427,0.426l-0.426-0.639l-0.638,0.426l0.212-0.639l-1.278,0.213l-1.49-2.556h-0.426l0.212,0.64l-0.425-0.213l-1.065,0.852
	l-1.491-2.13l-0.426,0.639l-0.213-1.278l-0.638,0.426l0.212,0.639l-1.065-1.065l0.213,1.278l0.426,0.212l-0.426,0.64l-0.426-1.491
	l-0.851-0.639v0.852l-1.066-0.213l0.213,0.426l-0.425,0.425l1.065-0.212l0.213,0.426l-0.213,0.213l0.852,0.213l0.212,0.639
	l0.853-0.426l1.917-0.213v0.425h0.426l-0.426,0.213l0.638,0.213h-0.426l0.426,0.213l-0.426,0.212h1.065h0.213l-1.065,1.065
	l0.852,0.639L138.6,13.59l-0.213,1.278l1.065,0.425l-1.491-0.425l-0.639,0.425l-0.213,1.278l-0.426-1.065l-0.638,0.426l-0.213-0.64
	l-1.065,1.065l-1.065-0.639l-2.981,0.425l-0.853-0.639l-0.213-1.065l-0.426,1.278l-1.704-0.427l0.426,1.492l-1.065-0.213
	l-0.426,0.425l1.065,0.852l-0.852-0.212l0.399,0.665l-0.399,0.399l-0.426-0.852v0.213l-0.426,0.213l0.213-1.065l-1.278-0.213
	l0.213,1.492h-0.426l1.277,0.639h-0.639v0.425l-1.065-1.064l-0.639,0.212l0.213,0.426l-0.425-0.426v1.491l-1.491,0.425v1.491
	l1.278,1.491l-0.426-0.213l-1.704,1.278l-0.639-0.213v-0.426l-0.639,0.426l-0.213,1.917l0.426-0.213l-0.852,0.639l0.213,1.065
	l-0.639,0.427l-0.426-0.427l0.426,1.065l-0.426-0.427l-0.426,0.852l-0.213-0.639l-0.852,1.49v0.64l0.639,0.639l0.426-0.426v0.64
	l0.852-0.213l0.213,0.426l0.852-0.426l-0.213,0.426l-1.065,0.639h0.639v0.426h-0.212l0.142,0.284l0.163,0.081l0.547-0.365
	l-0.213,0.639l1.491-0.852v0.639h-0.852l0.426,0.425l-0.639-0.212h-0.426h-0.852l0.426,0.852l-0.426-0.426l0.213,1.49l-0.639,0.213
	l-0.639-1.491l-0.639-0.213l0.213,1.065l-0.852-1.278l0.213,0.426h-0.426h-0.213l0.426,0.639l-0.426,0.426l0.639,0.212h-0.639
	l-0.213,0.852v-0.639l-0.426,0.852l0.426-1.065l-0.213-0.213l0.213-0.639l-0.426-0.212v0.212l0.212,0.639l-0.426-0.426v-0.852
	l-0.426,0.639v-0.852h-1.917l-0.426-0.425l-0.852-0.213l-1.278,0.213l0.852,0.639l0.213,0.852l-0.852-1.065l0.638,1.065
	l-0.212-0.213l-0.213,0.426l-0.426-0.426l-0.213,0.852l-0.426-1.064l-0.426,0.639l1.064,2.982h-0.426l-0.213-1.065l-1.065-1.065
	v1.704l-0.639,0.639l0.426-0.852l-0.426-0.639l0.426-0.213l-0.213-1.277l0.639-1.491h-0.426l0.852-0.212l-0.426-0.639l0.426-0.212
	l-1.491-1.065l-0.212,0.425l-1.917-2.981l-1.491-0.852l-0.213-0.852l-0.639-0.213l0.213,0.638l-0.639-0.638l-0.426,0.425v-0.425
	l-0.426,0.425l-0.426-1.064l-1.278-0.427v0.427l-0.852-0.213l0.426,1.065l0.852,0.425l-0.373-0.053l0.16,0.053l-0.16-0.053
	l-1.118-0.16l0.213,0.64l-0.426,0.425l-0.213-0.425l-0.213,1.277l-0.639-1.277l-0.426,0.212l0.426-1.064l-1.277,0.852l-0.213,0.425
	l0.426,0.426l-0.852,0.426l-0.213-1.065h-0.426l0.426-0.425h-0.426l0.426-0.426l-0.639,0.426l-0.639-0.213v0.427l-0.213-0.427v0.427
	l1.278,0.639l-0.852,0.639l0.213,0.638l-0.639,0.427l0.426,0.852h-0.852v1.065l-0.639-0.639l0.212-0.853l-0.852,0.213v-0.639
	l-0.639,1.704l0.213-1.917l0.426-0.639l-0.852-0.426v2.343l-0.639-0.213l-0.426,0.852l-0.213-0.639l-0.426,0.425l0.213-0.852
	l-0.852,0.852l0.426,0.213l-1.278,0.639l0.639,0.852h0.639l-0.852,0.64l1.278,0.425l0.213-0.425l0.426,0.212l-0.852,0.852
	l1.064,0.426h-1.064l-0.426-0.639l-0.852,0.639l-0.639-1.49l-0.426,0.212l0.213,0.852l-1.278,0.213l0.426,0.213l-0.213,0.639
	l1.278-0.852l-1.278,1.065l0.426,0.426l1.065-0.64v0.426h0.426l-0.639,0.639l1.277,1.065l-1.064-0.852l-0.426,0.425l-0.426-0.852
	l-0.852-0.212v-0.426l-0.639,0.426l-0.426,0.852l-0.213-0.427l-0.212,0.639l-0.852-0.212l0.213,0.212l-0.852,0.64l0.426,0.212
	l-0.639,0.213l0.852,2.342l0.213-0.372v0.16l0.426-0.64l-0.355,0.355l0.568-0.994l0.639-0.425l-0.426,0.425h0.639l-0.852,0.639
	l-0.213,1.491h0.426l-0.852,0.425l0.426,0.213l-0.426,0.213l-0.426-1.065l-0.426,1.917l1.491-0.213l1.278,0.639l1.065-0.212
	l-1.065,0.425l-0.426-0.425l-1.917,0.212l-0.426-0.426l-0.426,0.426l0.373,0.224l-1.011,0.203l0.639-0.213l-0.639-0.213
	l-0.639-0.852l-1.491-0.639l0.639,0.639h-0.426l0.426,0.64l-0.852-0.64v0.213l-1.065-0.426h0.426l-0.212-0.426h0.426l-0.852-0.425
	v0.425l-0.639-0.213l0.213,0.427l-0.426-0.427l0.426,0.64l-0.426,0.212l0.852,0.213l0.212,0.426l-0.639-0.213l0.639,0.426h-0.426
	h-0.213H77.48l1.064,0.639h-1.49l0.426,0.639l0.212-0.426l0.639,0.213l-0.852,0.639l1.49,0.426l0.426,1.278l0.852-0.426v-0.426
	l0.426,0.213l-1.064,1.065l0.426,0.426l-0.639-0.213l1.065,1.917l-1.917-1.917l-0.639,0.213l0.852,1.49l-0.426-0.213l-0.426,1.065
	v1.065l-1.278-1.278l-0.639-2.129l-0.852-0.64v-1.704h-0.639l-0.639-0.639l0.213-0.852l0.639-0.213l-0.426-0.639l-0.639,0.213
	l-1.278,2.129l0.639,0.639l-1.704-0.212l-0.213,0.639l0.426,0.852l-0.852-0.426v0.426l-0.852,0.213l-0.639,0.852l0.426,0.213
	l-1.065,0.852l-0.213,1.916l0.639,1.491l-0.426,1.491l1.491,0.213v0.852l-2.981,2.13l-0.852,0.212l-0.639,0.852l0.426,0.64
	l-1.065,0.212l0.213,0.852l-1.065,1.917l-2.555,3.195l-5.963,2.556l-1.491,0.213h-1.491L51.924,69.6l-0.852,0.639L50.434,69.6
	l-1.917-0.426L48.73,69.6v0.213L48.517,69.6l-0.426-0.213L47.878,69.6l-1.491,1.917l-4.472,0.852v-0.426l-1.704,1.065l0.213,0.426
	h-0.639l-0.426,0.852l-1.065,0.213v-0.213l-1.704,0.852l-1.278-0.639l-0.213-0.64l-1.491,0.852l-0.639-0.212l-0.426-0.213
	l0.639-1.065h-0.426l-1.065,1.278l0.212,0.212h-0.426l-2.129,1.065l-0.639-0.426l-0.213,1.064l-1.704,0.852l-0.639,1.278
	l-1.064,0.213l-1.065,1.704l-4.046,1.065l-1.704,1.064l-0.213,1.278l-0.426,0.213l-0.426-0.213l0.213,0.852l-0.639,1.065
	l0.426,0.426l-0.426-0.212l0.212,0.425l-0.852,1.065l-0.426-0.639l-1.065,0.639l0.426-1.49l-0.426,0.425l-0.213-1.49l0.852-2.556
	l-1.491,0.426l-2.129,5.111l1.065,2.769l-0.426,1.278l0.213,2.555l-2.129,2.982l-0.426,3.833l1.704,2.769l-0.213,0.427l0.426,1.704
	l0.852,0.639l2.342,4.685l0.639,0.213l0.212,1.064h-0.639l0.213,2.343l-1.064,1.277l-1.065-1.704l-0.213-2.342v1.065l-1.065,0.852
	l0.213-2.343l-1.704-2.769l-0.639,1.704l0.426,0.426v-0.852l0.639,3.194l2.13,1.704l-0.213,1.917l-1.277,0.64l-0.213-1.491
	l-0.213,1.278l-0.426-2.556l-0.213,1.277l-0.852-3.407l0.213,2.769l-0.639-0.426v-2.342l-0.213,1.704l-0.852-0.639l5.537,8.093
	l1.278,3.407l-0.426,1.065l0.426,2.129l2.343,2.769l0.639,1.278l-0.213,0.852l1.917,2.556l0.852,2.981l-0.213,3.833v0.427
	l0.639,3.407l4.259,8.944l0.213,3.194l1.065-0.639v0.425l-1.065,0.214l0.213,1.064l-0.426,0.639l0.213,1.491l-0.852,1.704
	l0.639,4.897l-2.342,2.769h-1.065l-1.278-0.852v4.473l0.852,2.342l0.212-0.426l1.278-0.213l2.342,1.278l1.917,2.98l2.555,0.853
	l0.213-0.639l0.852,0.639h-1.065l1.704,1.064l0.639-0.639l1.278,0.639l2.981-0.425l1.704,1.063l0.426-0.852l1.917,0.64l0.426-0.213
	l-1.064-0.427l0.426-0.852l0.426-0.213l-0.213,0.853h1.704l-0.213-0.64l1.491-0.213l0.213-1.278l1.917-0.852l0.212-0.852
	l1.065-0.427l-0.426-0.425l2.769,0.852l0.213-0.852l0.852,0.213v-0.852l1.065,0.212l-0.852-0.852l2.981-2.769h0.639l2.768,0.426
	l1.065-0.852l5.324-0.639l2.769,0.852l1.49-0.639l0.852,1.491h1.065l0.426-0.853l1.491,0.426l0.212-0.639l2.769-0.213l0.639,0.426
	l0.213,0.853l1.491-1.065l1.064,0.426l2.982-2.981l0.852-3.407l0.852-0.852l3.833-1.278l7.667-4.472l1.704-0.426l3.195,0.426
	l3.62-0.214l6.814-2.129l5.111-2.556l6.602-0.64l1.064-0.212l4.26,0.426l2.343-1.277l4.046,2.129l2.981,2.342h1.917l-0.213-0.425
	l0.426-0.214h1.491l2.555,2.131h2.556l-0.64-0.639l0.426-0.214l0.427,0.426l0.426-0.639l2.341,2.343l-0.638,0.213v1.064l1.277-0.639
	l0.852,0.213l0.853,1.703l-0.64,0.853l0.213-0.639h-1.063l0.424,0.852l-0.424,0.64l0.851,0.212l-0.427,0.64l1.279,1.277
	l-0.426-1.277l0.639,1.277l0.639-0.426l1.278,0.853l-0.64-0.64l1.064,0.213l-0.425,0.427l1.277,1.703v1.277l2.344,2.13l1.277,5.75
	l0.213-0.639l0.213,0.639l0.425,0.213l-0.851,0.213l-0.427-0.852l0.213-0.213l-0.853-0.214v-0.425l-0.638,1.277l0.851-0.426
	l2.557,3.194l1.064-0.639l1.065,1.278l0.425-2.344l-1.49,0.64l0.64-0.427l0.213-1.703l0.851-0.427l0.427,0.427v-1.49l3.194-3.621
	l2.556-1.277l-0.64,0.213l0.427-0.852l0.427,0.425l1.49-0.425l1.49-4.26l1.277-1.491l0.853,0.427v-4.26l1.064,2.343l0.213,1.917
	l0.64,0.639l-1.704,1.49l1.277,2.343l-2.556,2.556l-0.638,1.917l-0.427,0.213l0.427,1.277l-0.64,1.278l0.426-0.213l0.214,1.277
	l-0.427,2.556l-0.427,0.426l-2.554-0.639l-1.066,3.194l2.13-0.214l1.704-1.276l1.49,0.638l0.853-0.425l-0.426-0.427l1.063-2.342
	l0.213-2.13l1.279-2.981l2.981,5.167v-0.27v0.27l0.213,0.369l-0.427,0.214l-0.213-0.639l-0.213,4.685l-2.342,2.13l2.981,0.213
	l1.277-1.064l1.065,0.213l3.188,2.549l-3.188-2.336l2.768,2.129l1.812,2.353l-1.383-2.138l1.062,0.851l1.277,2.769l-0.564-0.873
	l1.631,4.28l-0.213,1.065l-1.064,1.064l0.851,1.277l-0.426,0.639l1.703,2.343l2.477,3.301l0.08,0.32l1.277,1.064l2.982,0.213
	l2.342,1.916v1.065l0.64-0.213l0.638,0.426l1.278-1.491l2.555,1.278l1.704-0.427l7.88,4.261l3.194-3.195l2.557-1.704h1.49
	l0.427-1.276l-1.492,0.425l-0.852-0.639h1.064l2.77-2.13l1.277,2.556l-1.277,1.703l-1.917-0.425l1.917,1.703l1.277-0.852l0.64,0.213
	l0.211-1.703h1.492l0.425,1.277l-0.851,0.213l-0.214,1.277l1.49,1.065l1.491-0.213l0.213,0.426l-0.638-0.213l1.064,1.916
	l0.851-0.639l0.853,0.426l-0.213-0.639l0.853,1.704l1.064,1.064l0.426-2.769l-1.277,0.852l-0.426-1.703h2.13l2.526-0.843
	l4.075-4.269l2.768-1.703l-3.407,1.49l1.917-1.278l-0.071-0.071l-0.143,0.071l0.143-0.071l-0.568-0.567l1.492,0.427l1.703-0.64
	l-0.213,0.426l9.371-0.852l1.915-1.703l-0.638-0.639h0.851l-0.213,0.639l1.278-0.639l-0.213-1.705l0.427-0.212h0.425l-0.425-1.065
	l-0.853-0.213l0.426-0.852l-0.426-1.065l0.426,0.214l0.427-1.491l0.851-3.407l-0.213-2.13l0.426-1.278h-0.426l1.065-0.852
	l-0.64-0.852l0.854,0.213l1.703-4.046l1.49-0.427l-0.64-1.276l0.64-0.214v0.853l0.425-0.214l-0.425-1.277l-0.426,0.213l0.213-0.426
	l-0.853-0.213l1.49-0.639l0.427-1.491l-0.427-0.639l0.64-0.214v-1.49l1.703-1.703l-0.638-0.214l1.064-0.213l-1.277-0.426l1.49-0.213
	l0.214-1.064l-0.64,0.426l-0.427-0.426l0.64,0.213l-0.213-0.639l0.64,0.426l0.213-1.704v-0.212l-0.427,0.425v-0.639l-0.213,0.214
	l-0.213-0.64l0.64,0.426l0.213-1.064v0.852l0.851-0.426l0.214-1.064l-0.427-0.427h0.853l0.638-1.703l-0.638,0.852l-0.213-0.852
	h0.638v-0.853l0.213,0.853l0.853-1.491l-0.213-0.426h0.427v0.64l2.555-1.491l-0.852-0.214l-0.853,0.64l-0.213-0.213l0.426-0.427
	l-0.213-0.425l0.853,0.425l0.638-0.425l0.214,0.425l0.853-1.277l1.49-0.852l0.213-1.703l-0.64-0.214v0.427l-0.851-0.427h0.851h0.214
	l0.213-1.49l1.49-1.278l1.917-6.176l-0.213-4.259l1.49-3.834l0.213-0.639l0.64-3.62l-0.64-0.426l0.64,0.213l-0.213-0.853
	l1.703-3.193h-0.426l0.426-0.214l0.214-1.703l-0.64-0.852L278.516,129.443z M84.082,45.109l-0.639,0.426v-0.81L84.082,45.109z
	 M261.053,143.072l-0.213-0.639l0.64-0.213l-0.213,0.852H261.053z"/>
<polygon fill="#FDF9D2" stroke="#6086C4" stroke-linecap="round" stroke-linejoin="round" points="275.536,104.1 276.386,105.378 
	274.682,107.295 275.109,107.295 274.682,108.785 274.258,109.85 275.109,111.341 277.026,105.59 276.599,104.738 276.599,103.248 
	"/>
<polygon fill="#FDF9D2" stroke="#6086C4" stroke-linecap="round" stroke-linejoin="round" points="263.183,96.859 262.97,94.517 
	262.543,94.942 261.693,94.304 261.267,94.517 261.906,95.369 "/>
<polygon fill="#FDF9D2" stroke="#6086C4" stroke-linecap="round" stroke-linejoin="round" points="257.646,85.999 257.859,86.424 
	258.498,85.999 257.859,85.359 "/>
<polygon fill="#FDF9D2" stroke="#6086C4" stroke-linecap="round" stroke-linejoin="round" points="277.666,123.267 277.452,125.609 
	277.666,125.822 278.303,123.692 "/>
<polygon fill="#FDF9D2" stroke="#6086C4" stroke-linecap="round" stroke-linejoin="round" points="277.452,127.313 277.608,126.229 
	277.568,126.215 277.452,126.674 "/>
<polygon fill="#FDF9D2" stroke="#6086C4" stroke-linecap="round" stroke-linejoin="round" points="277.635,126.035 277.613,126.035 
	277.568,126.215 277.608,126.229 "/>
<polygon fill="#FDF9D2" stroke="#6086C4" stroke-linecap="round" stroke-linejoin="round" points="277.666,125.822 277.613,126.035 
	277.635,126.035 "/>
<polygon fill="#FDF9D2" stroke="#6086C4" stroke-linecap="round" stroke-linejoin="round" points="277.878,120.499 277.239,120.924 
	277.666,123.054 "/>
<polygon fill="#FDF9D2" stroke="#6086C4" stroke-linecap="round" stroke-linejoin="round" points="260.84,95.582 261.053,94.942 
	260.414,95.155 "/>
<polygon fill="#FDF9D2" stroke="#6086C4" stroke-linecap="round" stroke-linejoin="round" points="256.369,81.526 256.793,81.313 
	256.369,81.1 "/>
<line fill="none" stroke="#6086C4" stroke-linecap="round" stroke-linejoin="round" x1="263.61" y1="96.646" x2="263.821" y2="97.499"/>
<line fill="none" stroke="#6086C4" stroke-linecap="round" stroke-linejoin="round" x1="277.239" y1="125.609" x2="277.239" y2="125.183"/>
<line fill="none" stroke="#6086C4" stroke-linecap="round" stroke-linejoin="round" x1="257.433" y1="85.785" x2="257.859" y2="85.359"/>
<line fill="none" stroke="#6086C4" stroke-linecap="round" stroke-linejoin="round" x1="256.583" y1="81.952" x2="257.006" y2="81.738"/>
<line fill="none" stroke="#6086C4" stroke-linecap="round" stroke-linejoin="round" x1="263.821" y1="97.924" x2="264.035" y2="98.35"/>
<line fill="none" stroke="#6086C4" stroke-linecap="round" stroke-linejoin="round" x1="260.84" y1="92.387" x2="261.267" y2="92.387"/>
<line fill="none" stroke="#6086C4" stroke-linecap="round" stroke-linejoin="round" x1="265.1" y1="98.562" x2="264.248" y2="98.35"/>
<line fill="none" stroke="#6086C4" stroke-linecap="round" stroke-linejoin="round" x1="277.059" y1="126.045" x2="277.026" y2="126.035"/>
<line fill="none" stroke="#6086C4" stroke-linecap="round" stroke-linejoin="round" x1="277.059" y1="126.045" x2="277.568" y2="126.215"/>
<line fill="none" stroke="#6086C4" stroke-linecap="round" stroke-linejoin="round" x1="277.608" y1="126.229" x2="277.666" y2="126.248"/>
<line fill="none" stroke="#6086C4" stroke-linecap="round" stroke-linejoin="round" x1="277.608" y1="126.229" x2="277.568" y2="126.215"/>
<line fill="none" stroke="#6086C4" stroke-linecap="round" stroke-linejoin="round" x1="277.666" y1="126.035" x2="277.635" y2="126.035"/>
<line fill="none" stroke="#6086C4" stroke-linecap="round" stroke-linejoin="round" x1="277.613" y1="126.035" x2="277.635" y2="126.035"/>
<line fill="none" stroke="#6086C4" stroke-linecap="round" stroke-linejoin="round" x1="277.613" y1="126.035" x2="277.239" y2="126.035"/>
<line fill="none" stroke="#6086C4" stroke-linecap="round" stroke-linejoin="round" x1="274.682" y1="108.146" x2="274.258" y2="107.507"/>
<line fill="none" stroke="#6086C4" stroke-linecap="round" stroke-linejoin="round" x1="25.091" y1="159.896" x2="25.304" y2="160.536"/>
<line fill="none" stroke="#6086C4" stroke-linecap="round" stroke-linejoin="round" x1="23.6" y1="158.831" x2="24.239" y2="158.619"/>
<line fill="none" stroke="#6086C4" stroke-linecap="round" stroke-linejoin="round" x1="75.563" y1="175.016" x2="75.137" y2="175.23"/>
<line fill="none" stroke="#6086C4" stroke-linecap="round" stroke-linejoin="round" x1="77.906" y1="177.146" x2="77.692" y2="177.36"/>
<line fill="none" stroke="#6086C4" stroke-linecap="round" stroke-linejoin="round" x1="69.174" y1="175.869" x2="68.961" y2="175.443"/>
<polygon fill="#FDF9D2" stroke="#6086C4" stroke-linecap="round" stroke-linejoin="round" points="184.92,191.637 185.312,192.246 
	185.239,192.053 "/>
<polygon fill="#FDF9D2" stroke="#6086C4" stroke-linecap="round" stroke-linejoin="round" points="172.887,189.499 173.1,188.433 
	171.608,188.433 172.035,187.156 165.007,188.646 164.581,189.711 165.86,191.202 167.777,190.989 169.267,190.563 170.97,191.415 
	171.822,190.776 172.035,189.923 174.804,189.923 175.229,189.072 173.738,188.433 "/>
<polygon fill="#FDF9D2" stroke="#6086C4" stroke-linecap="round" stroke-linejoin="round" points="161.6,182.044 162.453,183.109 
	162.239,182.47 "/>
<polygon fill="#FDF9D2" stroke="#6086C4" stroke-linecap="round" stroke-linejoin="round" points="144.776,161.174 145.415,160.536 
	144.563,160.748 "/>
<line fill="none" stroke="#6086C4" stroke-linecap="round" stroke-linejoin="round" x1="151.165" y1="171.823" x2="150.739" y2="172.674"/>
<line fill="none" stroke="#6086C4" stroke-linecap="round" stroke-linejoin="round" x1="160.536" y1="180.127" x2="160.749" y2="180.34"/>
<line fill="none" stroke="#6086C4" stroke-linecap="round" stroke-linejoin="round" x1="146.693" y1="161.6" x2="146.267" y2="161.387"/>
<line fill="none" stroke="#6086C4" stroke-linecap="round" stroke-linejoin="round" x1="163.09" y1="178.637" x2="162.876" y2="178.85"/>
<line fill="none" stroke="#6086C4" stroke-linecap="round" stroke-linejoin="round" x1="177.999" y1="180.823" x2="177.999" y2="180.553"/>
<line fill="none" stroke="#6086C4" stroke-linecap="round" stroke-linejoin="round" x1="177.999" y1="180.823" x2="177.999" y2="180.98"/>
<line fill="none" stroke="#6086C4" stroke-linecap="round" stroke-linejoin="round" x1="164.369" y1="183.96" x2="163.943" y2="183.748"/>
<polygon fill="#FDF9D2" stroke="#6086C4" stroke-linecap="round" stroke-linejoin="round" points="214.201,220.804 213.563,222.082 
	213.776,224.637 213.776,225.489 214.201,225.915 215.48,224.637 215.267,221.656 "/>
<polygon fill="#FDF9D2" stroke="#6086C4" stroke-linecap="round" stroke-linejoin="round" points="240.397,223.785 240.397,224.637 
	241.248,225.489 241.887,226.98 243.59,226.34 243.165,225.276 242.738,225.702 243.165,224.637 243.377,224.211 242.525,224.211 
	240.821,222.082 239.544,223.573 "/>
<polygon fill="#FDF9D2" stroke="#6086C4" stroke-linecap="round" stroke-linejoin="round" points="234.22,212.499 234.192,212.507 
	233.793,212.924 "/>
<polygon fill="#FDF9D2" stroke="#6086C4" stroke-linecap="round" stroke-linejoin="round" points="224.637,210.368 223.145,209.729 
	223.145,210.582 223.572,211.007 "/>
<polygon fill="#FDF9D2" stroke="#6086C4" stroke-linecap="round" stroke-linejoin="round" points="232.516,213.776 231.026,213.776 
	231.666,214.202 "/>
<polygon fill="#FDF9D2" stroke="#6086C4" stroke-linecap="round" stroke-linejoin="round" points="222.082,211.86 223.572,212.285 
	223.145,211.22 "/>
<line fill="none" stroke="#6086C4" stroke-linecap="round" stroke-linejoin="round" x1="231.876" y1="213.563" x2="232.516" y2="213.35"/>
<line fill="none" stroke="#6086C4" stroke-linecap="round" stroke-linejoin="round" x1="232.516" y1="213.35" x2="232.943" y2="213.137"/>
<line fill="none" stroke="#6086C4" stroke-linecap="round" stroke-linejoin="round" x1="233.369" y1="213.137" x2="233.793" y2="212.924"/>
<line fill="none" stroke="#6086C4" stroke-linecap="round" stroke-linejoin="round" x1="230.813" y1="213.563" x2="231.239" y2="213.563"/>
<line fill="none" stroke="#6086C4" stroke-linecap="round" stroke-linejoin="round" x1="240.61" y1="221.868" x2="240.821" y2="221.868"/>
<line fill="none" stroke="#6086C4" stroke-linecap="round" stroke-linejoin="round" x1="232.943" y1="213.35" x2="233.369" y2="213.137"/>
<line fill="none" stroke="#6086C4" stroke-linecap="round" stroke-linejoin="round" x1="239.473" y1="206.676" x2="239.757" y2="206.536"/>
<line fill="none" stroke="#6086C4" stroke-linecap="round" stroke-linejoin="round" x1="239.473" y1="206.676" x2="239.331" y2="206.748"/>
<polygon fill="#FDF9D2" stroke="#6086C4" stroke-linecap="round" stroke-linejoin="round" points="239.118,250.619 238.693,251.897 
	239.544,252.109 239.118,252.536 239.757,253.387 240.397,253.174 240.397,252.322 241.248,253.387 240.821,251.47 239.757,251.683 
	"/>
<polygon fill="#FDF9D2" stroke="#6086C4" stroke-linecap="round" stroke-linejoin="round" points="241.035,249.98 239.97,250.193 
	240.821,251.47 "/>
<polygon fill="#FDF9D2" stroke="#6086C4" stroke-linecap="round" stroke-linejoin="round" points="243.377,238.692 242.952,237.415 
	243.59,235.711 242.952,235.073 243.59,233.368 241.887,231.239 240.821,231.026 240.397,232.304 239.118,231.665 237.627,233.368 
	236.563,232.729 235.498,233.582 234.646,233.156 233.156,233.794 234.22,234.86 234.006,235.285 232.729,233.794 231.666,234.646 
	231.876,235.499 231.452,234.433 229.536,234.86 224.637,231.877 223.359,231.877 222.932,230.813 222.932,231.665 222.082,231.452 
	222.082,231.877 219.1,230.387 219.314,232.09 218.674,233.368 219.525,236.989 221.017,239.119 220.59,239.544 222.721,242.313 
	222.721,244.229 223.359,243.59 224.424,245.507 224.849,245.507 224.424,246.998 224.211,245.721 222.294,244.016 222.932,247.85 
	223.572,248.063 224.637,251.257 225.702,251.683 226.766,254.026 227.406,254.026 226.979,253.813 227.406,252.96 227.832,254.239 
	229.536,254.239 229.322,254.665 227.832,254.239 227.832,254.877 227.406,254.665 228.044,256.369 229.536,255.729 
	231.876,256.156 231.666,255.517 232.516,257.007 233.793,257.007 234.646,255.729 234.006,255.09 234.86,255.304 235.073,254.452 
	234.433,254.239 235.286,253.813 234.433,252.749 234.646,252.322 234.646,252.96 235.073,253.387 235.286,252.749 235.286,253.387 
	236.136,253.813 236.35,251.47 236.99,251.683 236.99,250.406 235.923,248.702 237.414,250.619 237.84,250.406 237.414,251.683 
	238.267,251.044 238.053,249.98 238.693,249.767 237.627,249.128 238.693,249.34 239.118,250.406 239.97,250.193 241.035,248.276 
	240.397,247.211 241.248,246.785 241.46,245.082 240.821,245.294 241.887,243.165 242.525,243.165 241.887,242.952 242.738,241.674 
	242.313,242.952 243.377,243.377 243.377,244.656 243.804,244.016 243.165,242.526 "/>
<polygon fill="#FDF9D2" stroke="#6086C4" stroke-linecap="round" stroke-linejoin="round" points="236.35,252.749 237.201,252.96 
	236.99,253.6 235.71,254.452 235.71,255.516 236.136,255.09 236.776,255.943 236.776,254.026 237.627,253.387 236.99,251.897 "/>
<polygon fill="#FDF9D2" stroke="#6086C4" stroke-linecap="round" stroke-linejoin="round" points="235.498,255.729 235.71,255.517 
	235.286,255.09 "/>
<polygon fill="#FDF9D2" stroke="#6086C4" stroke-linecap="round" stroke-linejoin="round" points="235.71,255.517 235.71,255.516 
	235.71,255.517 "/>
<polygon fill="#FDF9D2" stroke="#6086C4" stroke-linecap="round" stroke-linejoin="round" points="241.248,228.257 243.377,228.257 
	243.59,228.897 244.442,228.257 243.59,227.192 "/>
<polygon fill="#FDF9D2" stroke="#6086C4" stroke-linecap="round" stroke-linejoin="round" points="221.655,230.813 221.229,230.387 
	220.804,229.96 220.377,230.813 "/>
<polygon fill="#FDF9D2" stroke="#6086C4" stroke-linecap="round" stroke-linejoin="round" points="241.46,248.063 241.46,248.276 
	241.46,248.915 242.313,248.063 241.674,247.424 "/>
<polygon fill="#FDF9D2" stroke="#6086C4" stroke-linecap="round" stroke-linejoin="round" points="219.314,228.683 219.314,228.897 
	219.525,229.749 219.738,228.044 "/>
<polygon fill="#FDF9D2" stroke="#6086C4" stroke-linecap="round" stroke-linejoin="round" points="220.59,228.683 221.017,228.044 
	220.165,228.47 "/>
<polygon fill="#FDF9D2" stroke="#6086C4" stroke-linecap="round" stroke-linejoin="round" points="241.887,229.109 242.525,229.749 
	242.952,228.683 "/>
<line fill="none" stroke="#6086C4" stroke-linecap="round" stroke-linejoin="round" x1="240.61" y1="227.192" x2="240.183" y2="227.192"/>
<polygon fill="#FDF9D2" stroke="#6086C4" stroke-linecap="round" stroke-linejoin="round" points="239.544,225.489 239.757,224.85 
	239.544,225.276 "/>
<line fill="none" stroke="#6086C4" stroke-linecap="round" stroke-linejoin="round" x1="221.442" y1="231.452" x2="222.082" y2="231.452"/>
<line fill="none" stroke="#6086C4" stroke-linecap="round" stroke-linejoin="round" x1="243.59" y1="245.294" x2="242.952" y2="245.082"/>
<line fill="none" stroke="#D0BF9F" stroke-linecap="round" stroke-linejoin="round" x1="173.398" y1="44.626" x2="173.398" y2="117.402"/>
<line fill="none" stroke="#D0BF9F" stroke-linecap="round" stroke-linejoin="round" x1="113.852" y1="34.247" x2="113.852" y2="156.005"/>
<line fill="none" stroke="#D0BF9F" stroke-linecap="round" stroke-linejoin="round" x1="194.161" y1="117.351" x2="113.819" y2="117.351"/>
<line fill="none" stroke="#D0BF9F" stroke-linecap="round" stroke-linejoin="round" x1="194.17" y1="207.382" x2="194.17" y2="117.356"/>
<polyline fill="none" stroke="#D0BF9F" stroke-linecap="round" stroke-linejoin="round" points="278.231,129.83 277.507,129.901 
	276.587,129.809 276.081,130.224 275.555,130.458 275.013,130.511 274.074,130.24 273.025,130.708 272.212,129.875 271.274,129.603 
	270.423,130.234 269.753,130.848 268.67,130.954 267.765,131.044 267.657,131.785 267.945,132.853 268.667,132.78 268.015,133.575 
	267.887,134.134 266.838,134.603 266.081,134.313 265.648,133.625 264.997,134.419 264.345,135.214 264.037,135.792 263.35,136.225 
	262.88,135.176 262.81,134.453 262.376,133.766 261.961,133.259 261.33,132.409 260.209,132.155 258.566,132.135 257.989,131.826 
	257.229,131.536 256.507,131.608 256.272,131.083 255.368,131.172 253.958,131.676 252.658,131.439 251.337,131.023 
	250.796,131.076 250,132.249 248.897,132.176 248.823,133.277 248.101,133.349 248.154,133.892 247.285,134.342 194.172,134.29 "/>
<polyline fill="none" stroke="#D0BF9F" stroke-linecap="round" stroke-linejoin="round" points="253.274,203.419 251.996,202.478 
	250.276,202.357 242.094,198.292 242.271,196.943 241.917,195.861 241.196,194.833 240.629,193.597 240.833,192.429 239.4,191.699 
	238.501,192.025 237.79,192.32 237.05,192.431 235.967,192.785 234.516,193.193 232.554,192.732 231.518,192.13 230.622,192.457 
	229.964,193.123 228.8,192.919 227.577,192.347 226.653,192.486 225.219,191.757 223.369,192.037 222.546,191.593 221.805,191.703 
	221.334,192.341 221.557,193.822 220.262,194.017 218.642,193.316 217.365,192.373 216.986,191.105 215.014,189.322 
	213.395,188.621 212.257,188.603 210.812,186.55 210.209,183.802 209.201,183.388 207.481,183.269 206.5,183.037 205.445,183.576 
	205.4,184.529 204.308,183.558 203.817,181.55 202.086,180.109 199.966,179.861 198.218,179.556 197.193,180.279 195.36,179.419 
	194.25,179.587 "/>
<polygon fill="#A0C6E9" stroke="#6086C4" stroke-linecap="round" stroke-linejoin="round" points="112.406,46.813 112.619,46.387 
	111.341,45.961 111.554,45.109 110.915,45.535 111.767,44.044 111.554,43.406 112.192,43.406 111.767,42.766 112.832,42.128 
	112.406,42.766 112.832,42.979 113.684,42.341 114.535,42.554 114.322,43.193 113.684,43.406 113.896,44.258 113.471,44.683 
	113.044,44.47 113.044,46.174 112.406,47.025 112.406,46.813 "/>
<polygon fill="#A0C6E9" stroke="#6086C4" stroke-linecap="round" stroke-linejoin="round" points="108.359,34.461 108.359,34.248 
	108.359,34.461 "/>
<polygon fill="#A0C6E9" stroke="#6086C4" stroke-linecap="round" stroke-linejoin="round" points="112.406,46.813 112.619,46.387 
	111.341,45.961 111.554,45.109 110.915,45.535 111.767,44.044 111.554,43.406 112.192,43.406 111.767,42.766 112.832,42.128 
	112.406,42.766 112.832,42.979 113.684,42.341 114.535,42.554 114.322,43.193 113.684,43.406 113.896,44.258 113.471,44.683 
	113.044,44.47 113.044,46.174 112.406,47.025 112.406,46.813 "/>
<polygon fill="#A0C6E9" stroke="#6086C4" stroke-linecap="round" stroke-linejoin="round" points="108.359,34.461 108.359,34.248 
	108.359,34.461 "/>
<polygon fill="#A0C6E9" stroke="#6086C4" stroke-linecap="round" stroke-linejoin="round" points="144.137,55.118 143.71,53.841 
	144.563,52.776 145.202,54.479 144.137,55.118 "/>
<polygon fill="#A0C6E9" stroke="#6086C4" stroke-linecap="round" stroke-linejoin="round" points="122.841,23.174 123.054,23.387 
	122.841,23.174 "/>
<polygon fill="#A0C6E9" stroke="#6086C4" stroke-linecap="round" stroke-linejoin="round" points="144.137,55.118 143.71,53.841 
	144.563,52.776 145.202,54.479 144.137,55.118 "/>
<polygon fill="#A0C6E9" stroke="#6086C4" stroke-linecap="round" stroke-linejoin="round" points="122.841,23.174 123.054,23.387 
	122.841,23.174 "/>
<polygon fill="#A0C6E9" stroke="#6086C4" stroke-linecap="round" stroke-linejoin="round" points="261.053,143.072 260.84,142.433 
	261.48,142.22 261.267,143.072 261.053,143.072 "/>
<polygon fill="#A0C6E9" stroke="#6086C4" stroke-linecap="round" stroke-linejoin="round" points="187.793,202.702 187.581,202.063 
	187.793,202.702 "/>
<polygon fill="#A0C6E9" stroke="#6086C4" stroke-linecap="round" stroke-linejoin="round" points="186.73,201.423 186.943,200.785 
	186.73,201.423 "/>
<polygon fill="#A0C6E9" stroke="#6086C4" stroke-linecap="round" stroke-linejoin="round" points="187.369,202.063 187.156,201.637 
	187.369,202.063 "/>
<polygon fill="#A0C6E9" stroke="#6086C4" stroke-linecap="round" stroke-linejoin="round" points="186.73,201.423 186.943,200.785 
	186.73,201.423 "/>
<polygon fill="#A0C6E9" stroke="#6086C4" stroke-linecap="round" stroke-linejoin="round" points="187.369,202.063 187.156,201.637 
	187.369,202.063 "/>
<polygon fill="#A0C6E9" stroke="#6086C4" stroke-linecap="round" stroke-linejoin="round" points="187.793,202.702 187.793,202.915 
	187.793,202.702 "/>
<polygon fill="#A0C6E9" stroke="#6086C4" stroke-linecap="round" stroke-linejoin="round" points="249.552,165.646 248.489,164.155 
	249.979,162.665 250.192,163.516 249.128,163.73 249.552,164.369 249.552,165.646 "/>
<polygon fill="#A0C6E9" stroke="#6086C4" stroke-linecap="round" stroke-linejoin="round" points="235.286,192.692 235.073,190.563 
	236.35,191.202 235.498,190.989 235.286,192.053 235.923,192.48 235.286,192.692 "/>
<polygon fill="#A0C6E9" stroke="#6086C4" stroke-linecap="round" stroke-linejoin="round" points="210.581,210.156 210.156,208.877 
	210.793,208.877 211.006,208.026 211.646,208.453 210.581,210.156 "/>
<polygon fill="#A0C6E9" stroke="#6086C4" stroke-linecap="round" stroke-linejoin="round" points="203.341,161.813 202.915,161.387 
	203.341,160.748 203.979,161.387 203.341,161.813 "/>
<polygon fill="#A0C6E9" stroke="#6086C4" stroke-linecap="round" stroke-linejoin="round" points="200.359,191.628 200.359,190.35 
	200.999,191.415 200.785,191.84 200.359,191.628 "/>
<polygon fill="#A0C6E9" stroke="#6086C4" stroke-linecap="round" stroke-linejoin="round" points="246.785,182.47 246.572,182.044 
	245.721,183.109 245.294,182.684 246.572,181.619 246.785,182.47 "/>
<polygon fill="#A0C6E9" stroke="#6086C4" stroke-linecap="round" stroke-linejoin="round" points="196.1,174.803 196.314,173.952 
	196.738,175.016 196.1,174.803 "/>
<polygon fill="#A0C6E9" stroke="#6086C4" stroke-linecap="round" stroke-linejoin="round" points="203.979,160.961 204.192,160.536 
	204.619,160.748 203.979,160.961 "/>
<polygon fill="#A0C6E9" stroke="#6086C4" stroke-linecap="round" stroke-linejoin="round" points="236.35,208.665 236.35,207.813 
	237.414,207.813 236.35,208.665 "/>
<polygon fill="#A0C6E9" stroke="#6086C4" stroke-linecap="round" stroke-linejoin="round" points="248.275,174.591 247.849,173.952 
	248.489,173.739 248.275,174.591 "/>
<polygon fill="#A0C6E9" stroke="#6086C4" stroke-linecap="round" stroke-linejoin="round" points="202.489,162.665 202.702,161.813 
	203.128,162.452 202.489,162.665 "/>
<polygon fill="#A0C6E9" stroke="#6086C4" stroke-linecap="round" stroke-linejoin="round" points="229.109,191.202 228.044,190.563 
	229.109,191.202 "/>
<polygon fill="#A0C6E9" stroke="#6086C4" stroke-linecap="round" stroke-linejoin="round" points="249.552,165.646 248.489,164.155 
	249.979,162.665 250.192,163.516 249.128,163.73 249.552,164.369 249.552,165.646 "/>
<polygon fill="#A0C6E9" stroke="#6086C4" stroke-linecap="round" stroke-linejoin="round" points="235.286,192.692 235.073,190.563 
	236.35,191.202 235.498,190.989 235.286,192.053 235.923,192.48 235.286,192.692 "/>
<polygon fill="#A0C6E9" stroke="#6086C4" stroke-linecap="round" stroke-linejoin="round" points="210.581,210.156 210.156,208.877 
	210.793,208.877 211.006,208.026 211.646,208.453 210.581,210.156 "/>
<polygon fill="#A0C6E9" stroke="#6086C4" stroke-linecap="round" stroke-linejoin="round" points="203.341,161.813 202.915,161.387 
	203.341,160.748 203.979,161.387 203.341,161.813 "/>
<polygon fill="#A0C6E9" stroke="#6086C4" stroke-linecap="round" stroke-linejoin="round" points="200.359,191.628 200.359,190.35 
	200.999,191.415 200.785,191.84 200.359,191.628 "/>
<polygon fill="#A0C6E9" stroke="#6086C4" stroke-linecap="round" stroke-linejoin="round" points="246.785,182.47 246.572,182.044 
	245.721,183.109 245.294,182.684 246.572,181.619 246.785,182.47 "/>
<polygon fill="#A0C6E9" stroke="#6086C4" stroke-linecap="round" stroke-linejoin="round" points="196.1,174.803 196.314,173.952 
	196.738,175.016 196.1,174.803 "/>
<polygon fill="#A0C6E9" stroke="#6086C4" stroke-linecap="round" stroke-linejoin="round" points="203.979,160.961 204.192,160.536 
	204.619,160.748 203.979,160.961 "/>
<polygon fill="#A0C6E9" stroke="#6086C4" stroke-linecap="round" stroke-linejoin="round" points="236.35,208.665 236.35,207.813 
	237.414,207.813 236.35,208.665 "/>
<polygon fill="#A0C6E9" stroke="#6086C4" stroke-linecap="round" stroke-linejoin="round" points="248.275,174.591 247.849,173.952 
	248.489,173.739 248.275,174.591 "/>
<polygon fill="#A0C6E9" stroke="#6086C4" stroke-linecap="round" stroke-linejoin="round" points="202.489,162.665 202.702,161.813 
	203.128,162.452 202.489,162.665 "/>
<polygon fill="#A0C6E9" stroke="#6086C4" stroke-linecap="round" stroke-linejoin="round" points="229.109,191.202 228.044,190.563 
	229.109,191.202 "/>
<polygon fill="#A0C6E9" stroke="#6086C4" stroke-linecap="round" stroke-linejoin="round" points="261.267,143.072 261.053,143.072 
	261.267,143.072 "/>
<polygon fill="#A0C6E9" stroke="#6086C4" stroke-linecap="round" stroke-linejoin="round" points="269.998,162.452 270.424,161.6 
	271.489,161.387 269.998,162.452 "/>
<polygon fill="#A0C6E9" stroke="#6086C4" stroke-linecap="round" stroke-linejoin="round" points="269.998,162.452 270.424,161.6 
	271.489,161.387 269.998,162.452 "/>
<polygon fill="#A0C6E9" stroke="#6086C4" stroke-linecap="round" stroke-linejoin="round" points="229.322,249.767 228.896,248.702 
	227.832,248.702 228.683,247.424 228.896,248.276 229.322,247.424 229.961,248.702 230.173,249.553 229.322,249.767 "/>
<polygon fill="#A0C6E9" stroke="#6086C4" stroke-linecap="round" stroke-linejoin="round" points="229.749,251.47 227.832,249.128 
	229.109,249.767 228.469,249.98 229.109,250.619 229.961,250.193 230.599,251.257 229.749,251.47 "/>
<polygon fill="#A0C6E9" stroke="#6086C4" stroke-linecap="round" stroke-linejoin="round" points="233.793,242.313 234.006,241.249 
	234.433,241.887 233.793,242.526 233.793,242.313 "/>
<polygon fill="#A0C6E9" stroke="#6086C4" stroke-linecap="round" stroke-linejoin="round" points="235.71,244.016 235.498,242.739 
	236.136,242.952 235.71,244.016 "/>
<polygon fill="#A0C6E9" stroke="#6086C4" stroke-linecap="round" stroke-linejoin="round" points="229.749,244.656 229.109,244.443 
	229.536,243.59 229.749,244.656 "/>
<polygon fill="#A0C6E9" stroke="#6086C4" stroke-linecap="round" stroke-linejoin="round" points="232.516,241.887 232.516,240.183 
	233.369,240.822 232.516,241.887 "/>
<polygon fill="#A0C6E9" stroke="#6086C4" stroke-linecap="round" stroke-linejoin="round" points="229.109,243.165 228.469,242.1 
	229.109,243.165 "/>
<polygon fill="#A0C6E9" stroke="#6086C4" stroke-linecap="round" stroke-linejoin="round" points="229.322,249.767 228.896,248.702 
	227.832,248.702 228.683,247.424 228.896,248.276 229.322,247.424 229.961,248.702 230.173,249.553 229.322,249.767 "/>
<polygon fill="#A0C6E9" stroke="#6086C4" stroke-linecap="round" stroke-linejoin="round" points="229.749,251.47 227.832,249.128 
	229.109,249.767 228.469,249.98 229.109,250.619 229.961,250.193 230.599,251.257 229.749,251.47 "/>
<polygon fill="#A0C6E9" stroke="#6086C4" stroke-linecap="round" stroke-linejoin="round" points="233.793,242.313 234.006,241.249 
	234.433,241.887 233.793,242.526 233.793,242.313 "/>
<polygon fill="#A0C6E9" stroke="#6086C4" stroke-linecap="round" stroke-linejoin="round" points="235.71,244.016 235.498,242.739 
	236.136,242.952 235.71,244.016 "/>
<polygon fill="#A0C6E9" stroke="#6086C4" stroke-linecap="round" stroke-linejoin="round" points="229.749,244.656 229.109,244.443 
	229.536,243.59 229.749,244.656 "/>
<polygon fill="#A0C6E9" stroke="#6086C4" stroke-linecap="round" stroke-linejoin="round" points="232.516,241.887 232.516,240.183 
	233.369,240.822 232.516,241.887 "/>
<polygon fill="#A0C6E9" stroke="#6086C4" stroke-linecap="round" stroke-linejoin="round" points="229.109,243.165 228.469,242.1 
	229.109,243.165 "/>
<path id="Map_Border_1_" fill="none" stroke="#000000" stroke-width="1.2" stroke-linecap="square" stroke-miterlimit="10" d="
	M0.6,260.415V0.6 M288.1,260.415V0.6 M0.6,260.415h287.5 M0.6,0.6h287.5"/>
</svg>
